<svg id="120210f7-2f02-44a1-9df6-06407c21ccc7" data-name="Capa 1" xmlns="http://www.w3.org/2000/svg" xmlns:xlink="http://www.w3.org/1999/xlink" width="1478.4" height="1622.6" viewBox="0 0 1478.4 1622.6">
  <defs>
    <mask id="e80f9202-f248-49e7-b905-7cbe17d0fbd7" x="0" y="0" width="1478.42" height="1622.6" maskUnits="userSpaceOnUse">
      <g transform="translate(-82 685)">
        <g id="88b2f668-90f2-4a68-8ef1-722effa5ff6c" data-name="mask-2">
          <g id="b1fabf85-915f-400c-abc7-dbdc3266c153" data-name="use1496">
            <polygon id="2ac8bba7-0a42-4393-96c6-3ea453011e73" data-name="path-1" points="1560.4 -685 1560.4 937.6 82 937.6 82 -685 1560.4 -685" style="fill: #fff"/>
          </g>
        </g>
      </g>
    </mask>
  </defs>
  <title>Peugeot_2021</title>
  <g>
    <g id="c793cbf4-0d59-4bac-9ffd-6a27f22016ac" data-name="•-AP/1.Atoms/6.Logo/mobile/NBi21">
      <g id="6b991138-bf8d-4011-bf1b-13c18fc8d015" data-name="Group-8">
        <g id="66f6a525-29f9-4e4e-81ee-70f8f8a43dc5" data-name="Group-3">
          <g style="mask: url(#e80f9202-f248-49e7-b905-7cbe17d0fbd7)">
            <path id="b4795541-83ca-4b10-946f-af34f22d400b" data-name="Fill-1" d="M788.1,922.2C581.4,826.1,401.9,668.5,282.5,478.6S101,69.9,85.7-211.7c-4.9-89.8-4.9-201.8-.1-342.5l2.2-64.1,63.4-10.6C374-666.1,599.5-685,821.2-685s447.1,18.9,670,56.1l63.3,10.6,2.3,64.1c4.8,140.7,4.8,252.7-.1,342.5-15.3,281.6-77.8,500.9-196.8,690.3S1061,826.1,854.3,922.2l-33.1,15.4Z" transform="translate(-82 685)"/>
          </g>
        </g>
      </g>
    </g>
    <g id="de819f65-a620-4ef1-ace7-323da4f95166" data-name="•-AP/1.Atoms/6.Logo/desktop/NBi21-white">
      <path id="633491d2-9d36-4919-8338-367e861c9684" data-name="Combined-Shape" d="M821.2-638.7c223.5,0,455.5,19,691,59.5,3.5,94,7.5,239.5.8,362.8-15,275.1-75.7,488.6-191.3,672S1028.3,795.6,821.2,889C614.1,795.6,435.8,638.4,320.7,455.6S144.4,58.7,129.4-216.4c-6.7-123.3-2.7-268.8.8-362.8C365.7-619.7,597.7-638.7,821.2-638.7Zm0,26.5A4053.1,4053.1,0,0,0,156-556.7c-4.9,139.5-4.9,250.6-.1,338.9,14.8,270.4,74.3,479.9,187.3,659.3s282.4,327.6,478,418.3c195.6-90.7,365.1-238.9,478.1-418.3s172.4-388.9,187.2-659.3c4.8-88.3,4.8-199.4,0-338.9A4055.3,4055.3,0,0,0,821.2-612.2Zm-1.9,803.3s4.3,25.7,5.7,33.2c.7,4.2.9,5.4-.2,9.5-3.5,13.4-19.6,83.7-32.4,155.8l-2,11.4c-5.3,30.3-9.8,60.4-12.5,86.2-1.5,14.6-1,18.1,2.9,31.1,11,36.7,51.6,132.6,59.4,150.1a22.2,22.2,0,0,1,1.7,6.1h0l2.9,22.6C831.8,677.5,761,547.8,733.2,476c-3.2-8.5-3.9-12.7-.2-28.2,19.3-82.6,71.6-222.8,86.3-256.7ZM716.1-8.3s5.4,17.6,10.7,36.7l1.8,6.7c3.3,12.5,6.3,24.7,7.3,32.5s.9,9.5-1.8,16.6c-6.4,17.2-18.3,44.8-31,72.9l-5.5,12.1c-15.5,34.2-31.3,67.3-38.9,81.6-3.8,7-7.4,11.6-14.4,18.8-16.2,16.4-47.2,47.5-66.4,64.9-7,6.3-8.9,11.7-10.3,19.9-2.3,13.1-4.5,35.5-5.2,47.1s1.1,14.9,6.8,25C603,486.7,715.9,625.1,748.1,654.1a54.7,54.7,0,0,0,9,6.8c4.7,3.2,20.1,13.1,20.1,13.1a6.1,6.1,0,0,1,1.5,1.7h0l5.6,9.8-1.4-.8-2.5-1.2-7.4-3.7-7.2-3.5c-11-5.5-24.1-12.1-30.9-15.8a56,56,0,0,1-8-5.4c-37.7-31.2-153.1-165.9-187-222.2-8.5-14-9.4-18.6-8.2-31.9,2.1-24.7,5.4-55.8,8.3-69.4,1.7-8.3,3.5-13.1,9.9-20.4,21.2-24.4,47.1-56.6,72.4-89.6l8.8-11.7c38.3-50.7,73.6-101.4,86.7-127.2,3-5.9,3.3-8,3.3-13.5.2-16.1-4.9-47.5-6.3-55.4a15.9,15.9,0,0,1-.2-3.8h0Zm314-30.2,9.7,4.2a23.3,23.3,0,0,1,7.7,5.4c59.9,62.3,107.7,126.8,117.3,143.8a27.4,27.4,0,0,1,3.5,10.3c10.8,90.9,1.6,187.1-20.4,270.8-2,7.5-4.2,11.4-11.5,16.9-23.4,17.5-58.4,45.6-93.2,74.2l-11,9c-42.3,35-82.5,69.1-99.1,84.5a63,63,0,0,0-10.2,12.3c-7.9,12.7-20.3,35.4-26.3,46.6l-1.7,3L893,646c-7.8-17.1-25-59-30.9-75.9-2-5.5-2.3-8.4-.3-15.8,9.7-35.1,55.1-137.1,63.9-155.6h0v7.6l-.5,3.1c-3.9,11.9-28.5,92.5-33.4,127.5-1.2,7.7-1.1,9.8,0,17.4,2.1,16.3,11.9,46.1,11.9,46.1A214.3,214.3,0,0,1,915,580.2a49.5,49.5,0,0,1,8.5-10.1c21.9-21.6,59.2-54.9,98-88.4l13.7-11.8c29.9-25.6,59.6-50.4,83.2-69.4,6.1-4.9,8.4-8.2,9.7-17.6,6.8-46.2,8.7-129.1,4.6-189.5a63,63,0,0,0-10.8-31.6c-14.7-21.8-32.4-42.4-59.1-68.8a26.4,26.4,0,0,1-7.5-14c-7.8-41.5-25.2-117.5-25.2-117.5ZM525.2,57.6a21,21,0,0,1,11.4-.5c17.1,4.1,53.2,13,80.5,19.9a20.5,20.5,0,0,1,10.6,7.9h0l5.9,9.9a11.4,11.4,0,0,1,.4,11.3c-4.9,9.6-12,22.6-19.5,36l-5.6,10.1c-10.5,18.4-20.8,36.2-26.7,45.5-3.9,6.2-6.1,8.9-13,11.4-26.8,9.4-60.2,20.7-80,27.1-4,1.3-5.4,3.7-4.6,8.2,1.4,8.2,6,35.9,7.7,44,.7,3,3.1,5.3,7.5,4.5,11.7-2.2,42.9-9.8,42.9-9.8L528,296.5a8.4,8.4,0,0,1-3.5,2.1c-8.5,2.8-29.2,8.6-35.7,10-5,1.1-8.2-.9-9.5-6.5,0,0-8.9-37.6-12.1-50.4-.5-1.9-1-3.6-1.6-5.5-2.4-7.4-8.1-22-11.4-29.6a5.2,5.2,0,0,1-.5-2.8c.1-8.7,1.7-28.1,1.7-28.1s19.1,17.9,28.3,24.3c2.1,1.5,3.3,1.8,5.9,1.1,12.7-3.2,41.8-12.8,57.9-18.8a22.9,22.9,0,0,0,9.3-6.7c16.6-19.9,37.4-51,49.4-74.4a14.4,14.4,0,0,0,.9-10.4h0l-2.6-8.5a11,11,0,0,0-5.8-6.2C570.4,75.4,548.2,67.4,522,58.6h0Zm558.4-241.8a26.2,26.2,0,0,1,19.1.5c47.3,19.8,126.9,66.4,171.1,99.3,4.3,3.1,6,5.3,7.1,10.4,10.4,47.2,14.4,120,7.8,181.3a31.3,31.3,0,0,1-3.6,11.8c-28.1,57.1-59.6,110.9-92.8,152.4h0v-.6c.4-4.5,2.8-29.4,2.9-42.9a4.7,4.7,0,0,1,1.9-3.8c6.2-4.8,14.7-11.6,19.5-15.7a21.5,21.5,0,0,0,4.8-5.5c13.5-21.8,37.7-67.4,47.5-94.9a51.1,51.1,0,0,0,2.7-20.9c-3.1-38.2-9.1-91.3-18.1-125.9a21,21,0,0,0-10.9-13.6c-7.7-4-22.9-10.9-57.5-24.7a47.7,47.7,0,0,1-13.2-7.9c-22.7-19-58.1-47.5-80.2-63.9a27.3,27.3,0,0,0-22.5-4.7c-16.1,3.6-36.5,8.7-48,11.8a20.4,20.4,0,0,1-9.5.6l-7.7-.7-4.3-.4-11.6-.9h-.8c37.5-17.6,73.6-32.7,96.2-41ZM583.2,125.1c-11.8,19.3-25.8,39.7-36.4,52.5a11.6,11.6,0,0,1-5.3,3.7c-11.6,4.4-30.9,10.9-45.1,15.2h0Zm-155-25.2-7,47.6-23.5-27.6C402,110.7,414.5,101.9,428.2,99.9ZM554.9-169.9l-6.4,7.9-1.1,1.1c-5.6,4.1-29.4,22.3-35.9,27.4a7.7,7.7,0,0,0-3,5c-1.4,8.1-3.8,23.4-4.5,31.9-.3,2.4-1.3,3.7-3.9,4.7-11,4.5-24.1,9.2-34.7,13.4a13.3,13.3,0,0,0-4.2,2.3c-1.1.8-15.2,13.3-15.2,13.3s30.6-7.5,41.8-10a8.1,8.1,0,0,1,6.3.7c2.4,1.1,6.2,2.6,8.3,3.3s4.7,1.1,8.2.4c12.6-2.8,33.9-7.9,45.2-10.8a37.3,37.3,0,0,0,14.1-6.6c5.4-3.7,19.2-14,19.2-14s-.3,1.8-.5,2.8a3,3,0,0,1-1,2c-2.8,3.4-7.7,8.8-10.1,11.3-5.6,5.8-8.9,7.8-15.9,10.7-32.2,13.4-87.1,34.2-128.3,48.4a12.1,12.1,0,0,0-5.9,3.8c-2.2,2.2-5.1,5.4-5.1,5.4s33.6,2.4,43.9,3.6a13.9,13.9,0,0,1,8.2,3.6c8.5,7.3,36.4,35.9,44.8,45.9,0,0-79.4,13.2-116.2,22.3a10.1,10.1,0,0,0-7.8,7.6c-3.1,10.7-10.3,44.9-10.3,44.9a37.6,37.6,0,0,1-6.1-2.8,24.6,24.6,0,0,1-6.3-5.4c-8.7-9.2-23-26.7-29.9-36.9-2-3-2.9-6.8-.4-9.9,7.5-9.2,22.5-25.9,30.7-34.4a24.3,24.3,0,0,0,3.2-4.9c2.8-5.5,6.5-19.5,7.7-24.5l.4-1.6h0v-.3l-.2.2-1.5.9-6.8,4.3c-2.1,1.3-2.7,1.9-3.6,3.8s-3.7,7.2-5.5,10.2a15,15,0,0,1-2.9,3.2c-10.6,8.1-22.2,16.7-30.5,22.5a1.4,1.4,0,0,1-1.8-.2c-1.1-1.1-5.5-6.1-6.3-7.3a5,5,0,0,1-1-3.1c0-2.1.2-5.7.4-8.5s1.2-4.8,5.2-8.9S339-.5,344.1-5.5C356.5-15.9,388-41.3,444-81.3a11.6,11.6,0,0,0,2.8-2.6c5.9-8,22.6-29.6,26.8-34.8a11.4,11.4,0,0,1,1.9-1.9,157.2,157.2,0,0,1,16.6-11.7c15.6-9.8,45.9-27.7,62.8-37.6Zm341.8-17.7a12.1,12.1,0,0,1,7,1h0l16.3,7.8a5.9,5.9,0,0,1,3.2,4c2.3,9.3,5,21.7,6.8,32.2a18.7,18.7,0,0,1-2.3,12.7C920.9-118.1,907-97,899.2-85.6c-1.7,2.5-1.9,5.6-1.4,8.6,3.6,19.5,18.3,87.5,18.3,87.5h0l-9.3-8.4A14,14,0,0,1,903-3.7c-6.6-19.3-18.9-59.5-24.6-79a10.1,10.1,0,0,1,1.9-9.2c9.7-11.7,23.7-30.5,32-42.3,2.3-3.4,3-7,1.7-9.8s-5.1-9.7-8.2-15.1a6.5,6.5,0,0,0-3.8-3.1h0l-11.1-3.5a8.6,8.6,0,0,0-5.9.1c-24.3,8.7-56.8,21.4-76.8,29.6-2.9,1.2-4.1,1.3-7.6.8-5.8-.9-22.6-3.9-30.8-5.4a2.3,2.3,0,0,1-1.5-3.3h0l9.8-16.9a9.4,9.4,0,0,1,6.1-4.5c31.4-7.1,73-15.3,112.5-22.3ZM548.9-110a3.5,3.5,0,0,1,3.5,2.1,18.2,18.2,0,0,1-.5,14.1,7.7,7.7,0,0,1-4.9,3.9h0l-15.7,3.4a1.4,1.4,0,0,1-1.7-1.5h0l1.4-18.3a2.6,2.6,0,0,1,2.4-2.4h0ZM727.4-231.1a2.3,2.3,0,0,1,2,3.5h0l-38.2,65.7a17.4,17.4,0,0,1-10,8h0l-71.7,22.4a108.2,108.2,0,0,1-24,4.5c-15.9,1.2-63.2,2.7-63.2,2.7h0l1.1-2.3a4.5,4.5,0,0,1,2.4-2.3h0l22.4-9.5a11,11,0,0,0,4.2-3.2h0L587-184a29.1,29.1,0,0,1,7.4-6.1c22.9-11.9,63-29.7,91.2-39.1a34.7,34.7,0,0,1,9.1-1.5h0ZM689-303.5c79.1-6.9,186.1-8.8,288.4-1.1a51.7,51.7,0,0,1,16.9,4.1c33.6,14,93.1,44.8,159.2,82.6a39.8,39.8,0,0,1,7.6,5.3c17.1,14.9,62.5,61.2,62.5,61.2h0l-13.9-2.8a14.6,14.6,0,0,1-5.3-2.2c-28.1-18.8-69.1-43.3-103.4-60.5a37.9,37.9,0,0,0-12.7-3.7c-16.7-1.8-39.3-3.4-54-4a41.6,41.6,0,0,1-19.3-5.1c-13.6-6.8-46.5-21.7-62.9-28-7.1-2.6-10.6-3.3-17.5-3.2-28.2.4-92.4,2.5-125.1,4.5a19,19,0,0,1-3.4-.1h0L790.5-259c44.3-7.6,153.8-17.3,199.1-19.7h0l-18.4-6.2a41.6,41.6,0,0,0-11-1.9c-9.9-.2-31.8-.6-60.2-.7h-9.7c-43,.1-98.2,1.2-149.3,5a38.9,38.9,0,0,0-13.4,3.4c-20.9,9.2-70.9,36.2-120.9,64l-11.2,6.2c-13.1,7.2-26,14.5-38.2,21.3l7.5-9.6a9.9,9.9,0,0,1,2.8-2.6l16-10.5,5.1-3.4,10.1-6.7,3-2.2c15.1-11.4,39-31.5,53.3-44a42.7,42.7,0,0,0,8.3-9.7c4.6-7.5,9.7-15.6,12.8-20.1a16.9,16.9,0,0,1,12.8-7.1ZM351.4-486.2c19.7-2.1,30.8,5.6,30.8,25.5v11c0,20.5-11.1,28.8-31.1,30.9q-41.2,4.4-82.5,9.3v28.8l-16.2,2v-96.1C285.3-479,318.4-482.8,351.4-486.2Zm907-2.7q64.9,6.3,129.8,14.5v15.7c-18.9-2.4-37.9-4.7-56.8-6.8v79l-16.2-1.9v-79.4c-18.9-2.1-37.9-4-56.8-5.8v-15.3ZM544.4-501v15.1c-35.1,2.1-70.3,4.7-105.4,7.7v23.9c32.4-2.8,64.9-5.2,97.3-7.3h0v16c-32.4,2.1-64.9,4.5-97.3,7.3v25.4c35.1-3,70.3-5.6,105.4-7.8v15.2q-60.9,3.8-121.7,9.1h0v-95.5Q483.6-497.1,544.4-501Zm551.7,26.7c0-21,10.5-25.3,34-23.7,20.6,1.4,41.3,2.9,61.9,4.6s33.9,7.4,33.9,28.8h0v41.8c0,22.2-12.9,25.2-37.5,22.7-16-1.7-32-3.2-48.1-3.8-29.2-1.2-44.2-3.2-44.2-28.6h0ZM933.9-508.1q60.8,1.4,121.7,4.5V-488L950-493.4V-469c32.4,1,56.9,2.2,89.3,3.8h0v15.9c-32.4-1.5-56.9-2.8-89.3-3.7v26.3c37.9,1.1,67.7,2.5,105.6,4.5v13.9c-40.6-2-81.2-3.6-121.7-4.5h0ZM714.8-507v68.1c0,25.4-15.6,27.7-47.1,27.4a385.3,385.3,0,0,0-38.7,1.6c-27,2.4-44,.5-44-24.1v-69h0l16.2-.8V-432c0,4.4,3.8,8,8.9,7.7,26.7-1.2,53.3-2.2,80-3a8.4,8.4,0,0,0,8.5-8.4v-70.9l16.2-.4Zm406.1,23.5a7.8,7.8,0,0,0-8.6,8h0v46.2a9.5,9.5,0,0,0,8.6,9.1q40.2,2.7,80.2,6.1c4.3.3,8.6-3.6,8.6-7.9h0v-46.2c0-4.9-4.3-8.9-8.6-9.3C1174.4-479.7,1147.7-481.8,1120.9-483.5ZM786.7-509.4q45.3-.3,90.4.3v15c-32.3-.5-64.5-.5-96.8-.3-4.3.1-8.7,3.8-8.7,8.2h0v48.6a8.8,8.8,0,0,0,8.8,8.8c29.5-.3,59-.2,88.6.1v-25.6l-48.7-.3v-15.8c21.6,0,43.2.1,64.9.5v56.7c-31.6-.5-63.3-.6-94.9-.4-23.2.2-34.9-3.8-34.9-26.2v-42c0-20.6,10.4-27.4,31.3-27.6ZM358.3-471.3h-1.4c-29.4,3-58.9,6.3-88.3,9.9h0v36.4c29.4-3.6,58.9-6.9,88.3-9.9,4.5-.5,9.1-4.6,9.1-8.9h0v-20.1c0-4.5-4.6-7.9-9.1-7.4Z" transform="translate(-82 685)" style="fill: #fff"/>
    </g>
  </g>
</svg>
